# Blender v2.73 (sub 0) OBJ File: ''
# www.blender.org
o Cylinder_Cylinder.002
v 1.000000 -0.500000 -0.866025
v 1.000000 0.500000 0.866026
v 0.980785 -0.668953 -0.768480
v 0.980785 0.331047 0.963571
v 0.923880 -0.831414 -0.674684
v 0.923879 0.168586 1.057367
v 0.831470 -0.981138 -0.588240
v 0.831470 0.018862 1.143811
v 0.707107 -1.112372 -0.512472
v 0.707107 -0.112372 1.219579
v 0.555570 -1.220074 -0.450291
v 0.555570 -0.220074 1.281760
v 0.382683 -1.300103 -0.404086
v 0.382683 -0.300103 1.327965
v 0.195090 -1.349385 -0.375633
v 0.195090 -0.349385 1.356418
v 0.000000 -1.366025 -0.366025
v 0.000000 -0.366025 1.366025
v -0.195090 -1.349385 -0.375633
v -0.195090 -0.349385 1.356418
v -0.382683 -1.300103 -0.404086
v -0.382683 -0.300103 1.327965
v -0.555570 -1.220074 -0.450291
v -0.555570 -0.220074 1.281760
v -0.707107 -1.112372 -0.512472
v -0.707107 -0.112372 1.219579
v -0.831470 -0.981138 -0.588240
v -0.831470 0.018862 1.143811
v -0.923880 -0.831413 -0.674684
v -0.923880 0.168587 1.057367
v -0.980785 -0.668953 -0.768480
v -0.980785 0.331047 0.963570
v -1.000000 -0.500000 -0.866026
v -1.000000 0.500000 0.866025
v -0.980785 -0.331046 -0.963571
v -0.980785 0.668954 0.768480
v -0.923879 -0.168586 -1.057367
v -0.923879 0.831414 0.674683
v -0.831469 -0.018862 -1.143811
v -0.831469 0.981138 0.588240
v -0.707106 0.112373 -1.219579
v -0.707106 1.112373 0.512472
v -0.555570 0.220074 -1.281760
v -0.555570 1.220074 0.450290
v -0.382683 0.300104 -1.327965
v -0.382683 1.300103 0.404086
v -0.195089 0.349385 -1.356418
v -0.195089 1.349385 0.375633
v 0.000001 0.366025 -1.366025
v 0.000001 1.366025 0.366025
v 0.195091 0.349385 -1.356418
v 0.195091 1.349385 0.375633
v 0.382685 0.300103 -1.327965
v 0.382684 1.300103 0.404086
v 0.555571 0.220073 -1.281760
v 0.555571 1.220073 0.450291
v 0.707108 0.112372 -1.219578
v 0.707108 1.112372 0.512473
v 0.831470 -0.018863 -1.143810
v 0.831470 0.981137 0.588241
v 0.923880 -0.168588 -1.057366
v 0.923880 0.831412 0.674684
v 0.980786 -0.331048 -0.963570
v 0.980785 0.668952 0.768481
vn 0.995200 -0.084900 0.049000
vn 0.956900 -0.251400 0.145100
vn 0.881900 -0.408200 0.235700
vn 0.773000 -0.549400 0.317200
vn 0.634400 -0.669400 0.386500
vn 0.471400 -0.763800 0.441000
vn 0.290300 -0.828700 0.478500
vn 0.098000 -0.861900 0.497600
vn -0.098000 -0.861900 0.497600
vn -0.290300 -0.828700 0.478500
vn -0.471400 -0.763800 0.441000
vn -0.634400 -0.669400 0.386500
vn -0.773000 -0.549400 0.317200
vn -0.881900 -0.408200 0.235700
vn -0.956900 -0.251400 0.145100
vn -0.995200 -0.084900 0.049000
vn -0.995200 0.084900 -0.049000
vn -0.956900 0.251400 -0.145100
vn -0.881900 0.408200 -0.235700
vn -0.773000 0.549400 -0.317200
vn -0.634400 0.669400 -0.386500
vn -0.471400 0.763800 -0.441000
vn -0.290300 0.828700 -0.478500
vn -0.098000 0.861900 -0.497600
vn 0.098000 0.861900 -0.497600
vn 0.290300 0.828700 -0.478500
vn 0.471400 0.763800 -0.441000
vn 0.634400 0.669400 -0.386500
vn 0.773000 0.549400 -0.317200
vn 0.881900 0.408200 -0.235700
vn 0.956900 0.251400 -0.145100
vn 0.995200 0.084900 -0.049000
s off
f 2//1 4//1 3//1
f 3//2 4//2 6//2
f 5//3 6//3 8//3
f 7//4 8//4 10//4
f 10//5 12//5 11//5
f 12//6 14//6 13//6
f 14//7 16//7 15//7
f 16//8 18//8 17//8
f 18//9 20//9 19//9
f 20//10 22//10 21//10
f 21//11 22//11 24//11
f 23//12 24//12 26//12
f 25//13 26//13 28//13
f 28//14 30//14 29//14
f 29//15 30//15 32//15
f 31//16 32//16 34//16
f 34//17 36//17 35//17
f 36//18 38//18 37//18
f 37//19 38//19 40//19
f 40//20 42//20 41//20
f 42//21 44//21 43//21
f 43//22 44//22 46//22
f 46//23 48//23 47//23
f 47//24 48//24 50//24
f 50//25 52//25 51//25
f 52//26 54//26 53//26
f 54//27 56//27 55//27
f 56//28 58//28 57//28
f 58//29 60//29 59//29
f 60//30 62//30 61//30
f 61//31 62//31 64//31
f 63//32 64//32 2//32
f 1//1 2//1 3//1
f 5//2 3//2 6//2
f 7//3 5//3 8//3
f 9//4 7//4 10//4
f 9//5 10//5 11//5
f 11//6 12//6 13//6
f 13//7 14//7 15//7
f 15//8 16//8 17//8
f 17//9 18//9 19//9
f 19//10 20//10 21//10
f 23//11 21//11 24//11
f 25//12 23//12 26//12
f 27//13 25//13 28//13
f 27//14 28//14 29//14
f 31//15 29//15 32//15
f 33//16 31//16 34//16
f 33//17 34//17 35//17
f 35//18 36//18 37//18
f 39//19 37//19 40//19
f 39//20 40//20 41//20
f 41//21 42//21 43//21
f 45//22 43//22 46//22
f 45//23 46//23 47//23
f 49//24 47//24 50//24
f 49//25 50//25 51//25
f 51//26 52//26 53//26
f 53//27 54//27 55//27
f 55//28 56//28 57//28
f 57//29 58//29 59//29
f 59//30 60//30 61//30
f 63//31 61//31 64//31
f 1//32 63//32 2//32
