# Blender v2.73 (sub 0) OBJ File: ''
# www.blender.org
o Torus.001
v -0.000000 -1.258524 -0.000000
v -0.176778 -1.175923 -0.311932
v 0.080348 -1.216506 -0.095756
v -0.027347 -1.112426 -0.306927
v -0.113059 -0.741973 -0.094868
v -0.308889 -0.732534 -0.103926
v 0.036177 -0.778633 0.197838
v -0.397572 -0.818215 -0.053453
v 0.037227 -0.862022 0.314974
v -0.367996 -1.159746 -0.308786
v -0.266635 -0.996623 0.102389
v -0.458592 -1.051687 -0.102608
v -0.127467 -1.130278 0.176602
v -0.187531 -1.214965 0.006239
v -0.633818 -0.804893 -0.205485
v -0.445738 -1.007937 -0.535863
v -0.340438 -0.938773 -0.568002
v -0.237819 -0.736159 -0.481818
v -0.318994 -0.593992 -0.430242
v -0.040673 -0.777226 -0.198999
v -0.383469 -0.570805 -0.321769
v -0.425884 -0.657753 -0.684015
v -0.048117 -0.980901 -0.366311
v -0.743274 -0.810456 -0.340122
v -0.701383 -0.909787 -0.426704
v -0.493713 -1.094002 -0.250952
v -0.681712 -0.889908 -0.572024
v -0.656217 -0.749826 -0.717007
v -0.614672 -0.569330 -0.801588
v -0.588127 -0.441060 -0.326021
v -0.731764 -0.446216 -0.330286
v -0.449463 -0.428524 -0.660110
v -0.892882 -0.610162 -0.580035
v -0.865341 -0.540863 -0.726108
v -0.493209 -0.259158 -0.578720
v -0.548765 -0.243172 -0.460469
v -0.870579 -0.391672 -0.404381
v -0.935417 -0.445905 -0.501823
v -0.611978 -0.132722 -0.839045
v -0.956475 -0.143513 -0.802578
v -0.820256 -0.335929 -0.851870
v -0.540485 0.000000 -0.733671
v -0.682003 -0.057479 -0.412239
v -0.995703 -0.242063 -0.671854
v -0.726759 -0.014310 -0.892907
v -0.812666 0.011129 -0.399633
v -0.933086 0.132743 -0.456600
v -1.009542 0.076486 -0.564905
v -0.515247 0.148281 -0.592374
v -0.574876 0.049186 -0.482378
v -1.008792 0.159999 -0.688451
v -0.928848 0.324902 -0.779396
v -0.851850 0.154182 -0.875719
v -0.644661 0.504138 -0.822119
v -0.513982 0.508491 -0.757634
v -0.519756 0.334596 -0.436127
v -0.624616 0.350639 -0.361767
v -0.723038 0.456086 -0.325031
v -0.728155 0.616892 -0.775104
v -0.448689 0.430068 -0.658770
v -0.860619 0.632283 -0.438167
v -0.915656 0.546195 -0.603391
v -0.711891 0.719007 -0.270178
v -0.775172 0.814213 -0.487160
v -0.803861 0.683670 -0.674519
v -0.640909 0.931984 -0.537786
v -0.529597 0.921477 -0.609332
v -0.379192 0.905740 -0.601260
v -0.237583 0.737129 -0.483110
v -0.384547 0.559185 -0.322674
v -0.442786 0.627095 -0.210421
v -0.091630 0.970349 -0.403238
v -0.400242 0.477405 -0.500461
v -0.155985 0.732534 -0.286150
v -0.397573 0.818216 -0.053454
v -0.523507 1.022454 -0.157074
v -0.544054 1.061493 -0.290143
v -0.424679 1.124166 -0.356348
v -0.211911 1.169392 -0.338413
v 0.023904 1.129454 -0.264582
v -0.239190 0.759790 -0.038125
v -0.311397 0.991058 0.064422
v -0.181784 1.229634 -0.150363
v 0.059512 0.873346 -0.232338
v -0.269629 1.193686 -0.064408
v 0.000000 0.753180 0.000000
v -0.221363 0.697635 -0.185746
v -0.137478 1.129060 0.168144
v 0.068472 1.249900 0.055257
v 0.197697 1.211557 -0.000472
v 0.122055 0.783963 -0.061634
v 0.036175 0.778634 0.197836
v -0.007230 0.869504 0.277687
v 0.026423 1.214965 0.185767
v 0.401827 0.959333 0.010516
v 0.397571 0.818216 0.053453
v 0.226716 0.899505 0.517164
v 0.318926 1.181206 0.267611
v 0.313631 0.724436 0.102044
v 0.221365 0.697635 0.185748
v 0.194372 1.046088 0.445280
v 0.542248 1.033207 0.455000
v 0.535557 1.069041 0.285788
v 0.284115 0.627094 0.399526
v 0.277875 0.690914 0.515441
v 0.374448 1.069039 0.477797
v 0.843636 0.679991 0.425500
v 0.471248 1.046284 0.112618
v 0.810295 0.578037 0.353057
v 0.540308 0.519778 0.288502
v 0.384554 0.559181 0.322679
v 0.483375 0.786445 0.688374
v 0.728619 0.814800 0.611384
v 0.814309 0.760362 0.519699
v 0.668262 0.544182 0.278464
v 0.653210 0.760358 0.711695
v 0.504958 0.366243 0.423710
v 0.420076 0.436464 0.515584
v 0.494213 0.327528 0.696365
v 0.888418 0.480383 0.745471
v 0.608425 0.209651 0.837390
v 0.703681 0.292019 0.875098
v 0.800781 0.184810 0.389883
v 0.665924 0.194962 0.394223
v 0.515247 0.148281 0.592373
v 0.986724 0.316956 0.664300
v 0.999648 0.131793 0.555245
v 0.578279 0.049478 0.485234
v 0.933223 -0.066098 0.456715
v 0.956568 0.096418 0.802656
v 1.000463 -0.262127 0.675231
v 0.673684 -0.158904 0.403199
v 0.523014 -0.184812 0.720912
v 0.848471 -0.173996 0.872988
v 0.825551 0.316951 0.856378
v 0.961421 -0.367215 0.522747
v 0.791997 -0.228185 0.381008
v 0.485907 -0.294689 0.572473
v 0.700083 -0.278820 0.870524
v 0.533647 -0.446988 0.774135
v 0.782873 -0.609578 0.330951
v 0.753224 -0.546203 0.796972
v 0.841596 -0.610411 0.706183
v 0.820064 -0.749833 0.521745
v 0.645796 -0.580986 0.261017
v 0.505941 -0.560656 0.269270
v 0.464015 -0.449150 0.389355
v 0.369192 -0.580987 0.590661
v 0.522936 -0.736698 0.722170
v 0.683198 -0.895822 0.289410
v 0.538782 -0.922273 0.616202
v 0.186495 -0.919054 0.482840
v 0.605090 -1.007942 0.345902
v 0.415991 -0.954985 0.022383
v 0.365642 -0.832531 0.024757
v 0.204704 -1.038704 0.453965
v 0.586897 -0.998457 0.492465
v 0.308184 -1.185162 0.258597
v 0.337888 -1.175924 0.119928
v 0.239194 -0.759790 0.038132
v 0.292512 -0.619907 0.406429
v 0.176778 -1.175925 0.311929
v 0.307481 -1.106956 -0.023885
v 0.061374 -0.874101 -0.231465
v 0.112393 -0.737607 0.094309
v 0.943089 -0.230057 0.791345
v 0.547212 -0.233267 0.459166
v 0.297028 -0.646763 0.249236
vn 0.116600 -0.941800 -0.315400
vn 0.342200 -0.761900 -0.550000
vn 0.043200 0.993800 0.102500
vn -0.394500 0.734000 0.552800
vn -0.085900 -0.974100 -0.209300
vn -0.655700 -0.297500 0.693900
vn -0.227300 -0.973000 -0.040300
vn -0.496400 0.335200 0.800800
vn -0.688400 -0.197900 0.697800
vn -0.080000 -0.841100 -0.534900
vn 0.203500 -0.650100 -0.732100
vn 0.715600 0.560000 -0.417500
vn 0.485700 0.868000 0.103200
vn 0.542000 -0.174600 -0.822000
vn 0.753100 0.309900 -0.580300
vn -0.761400 -0.577600 0.294300
vn -0.559100 -0.807900 -0.186200
vn -0.232700 -0.678600 -0.696600
vn 0.148400 -0.447400 -0.881900
vn -0.044900 0.577900 0.814900
vn -0.529500 0.146200 0.835600
vn 0.751900 0.144400 -0.643300
vn 0.846700 0.521600 -0.105100
vn -0.781400 -0.595200 -0.187200
vn -0.532100 -0.560200 -0.634800
vn 0.793800 0.528100 0.301500
vn 0.297100 0.495500 0.816200
vn -0.784300 -0.145900 0.603000
vn -0.725300 -0.559000 -0.401900
vn 0.500800 -0.077100 -0.862100
vn -0.655500 -0.284900 -0.699300
vn 0.973400 0.218500 0.068500
vn 0.679200 0.315200 0.662800
vn -0.964500 -0.262700 0.027100
vn -0.839500 -0.281900 -0.464500
vn 0.352700 -0.082100 -0.932100
vn 0.187500 0.179600 0.965700
vn -0.389600 0.045200 0.919900
vn -0.805500 -0.042900 0.591000
vn 0.852300 0.063500 0.519200
vn -0.999000 -0.033700 -0.028900
vn -0.708300 0.076500 -0.701800
vn -0.813600 0.076500 -0.576400
vn 0.440500 0.052600 -0.896200
vn 0.863600 -0.068600 -0.499600
vn 0.927200 -0.227300 0.297800
vn 0.538100 -0.235100 0.809500
vn 0.154300 -0.193500 0.968900
vn -0.415000 0.297900 -0.859700
vn 0.806100 -0.069700 -0.587700
vn -0.836800 0.101500 0.538000
vn -0.955300 0.208100 0.209800
vn -0.914300 0.284100 -0.288600
vn -0.305200 -0.182100 0.934700
vn -0.895600 0.439300 0.069400
vn -0.810400 0.531600 -0.246300
vn -0.381400 0.621200 -0.684600
vn 0.093300 0.431700 -0.897200
vn 0.759600 -0.161800 -0.630000
vn 0.453500 -0.638600 0.621700
vn -0.112700 -0.419100 0.900900
vn 0.786600 -0.309300 -0.534400
vn 0.542200 -0.780500 0.311200
vn 0.082000 -0.644000 0.760600
vn -0.785900 0.283000 0.549700
vn -0.802300 0.527800 0.278700
vn -0.679000 0.725200 -0.113700
vn -0.120000 0.798500 -0.590000
vn 0.109300 0.666200 -0.737800
vn 0.332900 0.551400 -0.764900
vn -0.284100 -0.567500 0.772800
vn -0.698600 0.175100 0.693800
vn -0.177800 0.945100 -0.274300
vn 0.572800 -0.778900 -0.255500
vn -0.606700 0.732600 0.308600
vn -0.389200 0.921000 -0.012600
vn 0.329000 -0.937700 -0.111700
vn -0.085700 -0.921900 0.377800
vn -0.660400 0.322600 0.678100
vn -0.600900 0.613800 0.512000
vn 0.150300 0.942100 -0.299700
vn 0.551400 -0.638800 -0.536500
vn -0.434600 -0.702700 0.563300
vn -0.616200 -0.210400 0.759000
vn -0.227600 0.956500 0.182700
vn 0.619600 -0.245500 -0.745500
vn 0.318700 -0.786700 -0.528700
vn -0.627900 -0.405800 0.664200
vn 0.277700 0.960500 -0.016800
vn 0.357600 -0.661600 -0.659100
vn -0.018100 -0.946200 -0.322900
vn -0.582900 0.250400 0.773000
vn 0.035800 0.962400 0.269100
vn 0.441900 0.881000 0.169100
vn -0.404100 -0.897300 -0.177500
vn -0.681500 -0.656000 0.324500
vn 0.243300 0.881000 0.405900
vn 0.790200 0.496900 -0.358700
vn 0.741700 0.210000 -0.637000
vn 0.159200 -0.562800 -0.811200
vn -0.311700 -0.828100 -0.465900
vn -0.602000 -0.793900 -0.085300
vn -0.423100 0.322000 0.846900
vn -0.215600 0.528700 0.821000
vn 0.669400 0.715200 0.201000
vn 0.493100 -0.206800 -0.845000
vn 0.314200 0.715200 0.624300
vn -0.312300 -0.586300 -0.747400
vn -0.760800 -0.601900 -0.242800
vn -0.871200 -0.486800 0.063900
vn 0.755800 0.520500 0.397300
vn -0.458600 0.127800 0.879400
vn -0.080300 0.320600 0.943800
vn 0.522600 0.520500 0.675300
vn 0.480300 -0.093300 -0.872100
vn -0.055100 -0.328200 -0.943000
vn -0.598100 -0.447700 -0.664700
vn -0.805700 -0.385800 -0.449500
vn -0.939700 -0.247400 0.236300
vn 0.946000 0.211000 -0.246100
vn -0.442600 -0.268600 -0.855600
vn -0.917800 -0.269100 -0.291800
vn 0.780300 0.048600 -0.623600
vn 0.966600 0.027700 0.254900
vn 0.996800 0.025100 0.075600
vn -0.692600 -0.033500 -0.720500
vn -0.993500 -0.060500 -0.096700
vn 0.143700 0.040200 0.988800
vn 0.451500 0.051200 0.890800
vn 0.976300 -0.061300 -0.207700
vn 0.857600 -0.032300 -0.513300
vn 0.464300 0.009200 -0.885600
vn -0.977600 0.055600 0.203200
vn -0.364200 -0.005200 0.931300
vn -0.478000 -0.030100 0.877900
vn 0.770900 -0.066700 -0.633400
vn 0.567700 -0.301700 0.766000
vn 0.899200 -0.393100 0.192200
vn 0.938000 -0.346600 -0.001300
vn -0.008500 0.325200 -0.945600
vn -0.604500 0.467400 -0.645100
vn -0.926000 0.374600 -0.045800
vn -0.377700 -0.149900 0.913700
vn 0.836400 -0.218300 -0.502800
vn 0.119400 -0.484600 0.866500
vn 0.357500 -0.562300 0.745700
vn -0.526400 -0.131200 0.840000
vn 0.794900 -0.599800 -0.091400
vn 0.503500 0.223200 -0.834700
vn -0.708800 0.164200 0.686000
vn -0.454600 -0.273700 0.847600
vn 0.523200 -0.850400 0.055400
vn 0.247700 0.574100 -0.780400
vn -0.699400 0.579300 0.418700
vn 0.145400 -0.850400 0.505600
vn 0.705500 -0.309700 -0.637400
vn 0.495900 -0.651600 -0.574000
vn 0.631900 -0.233800 -0.738900
vn 0.576900 0.344000 -0.740900
vn 0.453200 0.673200 -0.584300
vn 0.161100 0.963400 -0.214200
vn -0.207100 0.952100 0.224800
vn -0.607900 -0.207500 0.766400
vn -0.371900 0.754600 0.540600
vn -0.620500 0.205600 0.756800
vn -0.584400 -0.625500 0.517000
vn 0.680600 0.194200 -0.706400
vn 0.600300 0.736700 -0.311500
vn -0.582300 -0.735000 0.347500
vn -0.429400 -0.898800 0.088400
vn 0.282800 -0.606900 -0.742800
vn 0.516700 -0.283200 -0.808000
vn 0.500400 0.864000 0.055400
vn 0.011300 0.804700 0.593600
vn -0.348400 -0.830000 -0.435600
vn -0.741500 -0.270500 0.614000
vn -0.756600 -0.559400 0.338700
vn -0.528000 -0.822000 -0.213300
vn 0.085900 -0.524400 -0.847100
vn 0.436100 -0.226900 -0.870800
vn 0.482300 0.774300 0.409700
vn -0.066400 0.556600 0.828100
vn -0.864900 -0.483200 0.135900
vn 0.899400 0.354900 -0.255100
vn 0.765300 0.548000 0.337700
vn -0.398000 0.202700 0.894700
vn -0.765900 -0.136400 0.628300
vn -0.896900 -0.356700 0.261500
vn -0.384000 -0.420100 -0.822200
vn -0.205900 -0.376000 -0.903500
vn 0.837800 0.141200 -0.527500
vn 0.787800 0.062100 -0.612800
vn -0.036600 0.210600 0.976900
vn -0.887500 -0.328500 -0.323200
vn 0.073900 -0.147300 -0.986300
vn -0.453400 0.054700 0.889600
vn -0.821100 -0.041200 0.569300
vn -0.971300 -0.112500 0.209500
vn -0.427000 -0.071400 -0.901400
vn -0.216500 -0.061400 -0.974300
vn 0.974100 0.045300 -0.221500
vn 0.905200 0.111600 0.410200
vn 0.467500 0.107500 0.877500
vn -0.947300 -0.043900 -0.317400
vn 0.038000 0.129300 -0.990900
vn 0.459900 0.042300 -0.887000
vn 0.659500 -0.182900 0.729100
vn 0.029100 -0.126700 0.991500
vn -0.470300 -0.053000 0.880900
vn -0.187700 0.256400 -0.948200
vn 0.974600 -0.217400 0.054100
vn -0.969800 0.204700 0.132500
vn -0.578500 0.408000 -0.706300
vn 0.940200 -0.270800 -0.206800
vn 0.759500 -0.407100 0.507300
vn -0.767900 0.088000 0.634500
vn -0.791600 0.408600 -0.454400
vn -0.368700 0.622200 -0.690600
vn 0.082000 0.434700 -0.896900
vn 0.428000 0.201600 -0.881000
vn 0.846100 -0.523000 -0.102500
vn 0.793600 -0.576300 0.195000
vn 0.402800 -0.594200 0.696200
vn -0.689300 0.639600 -0.340100
vn 0.539200 0.143700 -0.829800
vn 0.805700 -0.481500 -0.345000
vn -0.528100 -0.151900 0.835500
vn -0.818800 0.472400 0.326200
vn -0.266700 0.803100 -0.532800
vn 0.590100 -0.800400 0.106000
vn 0.188500 -0.793900 0.578100
vn -0.543800 0.812000 -0.211900
vn 0.474000 0.357200 -0.804800
vn 0.237200 -0.884800 0.401200
vn -0.463000 -0.330200 0.822600
vn 0.682000 -0.184400 -0.707800
vn -0.452400 0.891400 0.028000
vn 0.194100 0.924800 -0.327300
vn 0.284300 0.846400 -0.450200
vn 0.220500 -0.974100 -0.049900
vn -0.049100 -0.989500 0.136300
vn -0.339300 -0.783000 0.521300
vn -0.449400 0.761600 0.467000
vn -0.219000 0.959500 0.177500
vn 0.632900 0.193700 -0.749600
vn 0.540700 -0.430700 -0.722600
vn -0.611800 0.194900 0.766600
vn 0.585000 0.581200 -0.565600
vn 0.646400 0.305100 -0.699300
vn 0.059100 -0.934900 -0.350000
vn -0.383500 -0.904500 0.186500
vn -0.400700 0.627500 0.667600
vn 0.464300 0.878800 -0.110500
vn 0.582800 0.749100 -0.314900
vn -0.208700 0.752400 0.624700
vn -0.032200 0.878200 0.477200
vn -0.681100 -0.639200 0.357100
vn -0.693100 -0.175800 0.699100
vn 0.729000 0.190200 -0.657600
vn 0.456900 -0.271500 -0.847100
vn -0.266100 -0.793400 -0.547400
vn 0.687700 0.715200 0.124300
vn 0.801600 0.554500 -0.223500
vn 0.052400 -0.602300 -0.796500
vn -0.019600 0.592500 0.805300
vn 0.241800 0.715200 0.655700
vn -0.681000 -0.668100 -0.299600
vn -0.852300 -0.476200 0.216300
vn -0.805500 -0.202100 0.557100
vn -0.843300 -0.244400 0.478700
vn -0.518800 0.106600 0.848200
vn 0.880200 0.416500 0.227500
vn 0.933500 0.358100 -0.014900
vn -0.017200 -0.301900 -0.953200
vn 0.075500 0.335700 0.938900
vn 0.376900 0.416500 0.827300
vn 0.835000 0.110000 -0.539100
vn 0.814500 0.224300 0.535000
vn 0.297200 -0.096200 -0.950000
vn 0.668300 0.224300 0.709300
vn -0.034100 -0.026100 -0.999100
vn -0.782800 -0.014200 0.622100
vn 0.889500 -0.052500 0.454000
vn -0.170300 0.024800 -0.985100
vn -0.825300 0.079800 -0.559100
vn -0.011000 -0.007900 0.999900
vn 0.634200 -0.052900 0.771300
vn -0.464900 0.131800 -0.875500
vn -0.900400 0.137000 -0.412900
vn -0.887200 0.056900 0.457800
vn 0.808900 -0.325500 0.489600
vn 0.366100 0.112500 -0.923800
vn 0.149700 -0.234500 0.960500
vn 0.506200 -0.314800 0.802900
vn 0.469100 0.103900 -0.877000
vn 0.005800 0.314100 -0.949400
vn -0.567600 0.443100 -0.693900
vn -0.874600 0.417000 -0.247200
vn -0.774900 0.095400 0.624900
vn -0.079900 -0.279100 0.956900
vn 0.889600 -0.327800 -0.318100
vn 0.638700 -0.647900 0.415200
vn -0.655300 0.614200 -0.439700
vn -0.880600 0.377200 0.286800
vn -0.806400 0.267600 0.527400
vn 0.489400 -0.644700 0.587200
vn 0.715000 -0.686300 0.133200
vn -0.212000 0.678100 -0.703700
vn -0.705600 0.694800 -0.139000
vn 0.715300 -0.150000 -0.682500
vn 0.480500 0.242500 -0.842800
vn 0.050400 0.653300 -0.755400
vn -0.708000 0.690300 0.148900
vn -0.232700 -0.497200 0.835900
vn 0.457900 -0.881700 0.113900
vn 0.687200 -0.646100 -0.332200
vn -0.321900 0.868600 -0.376900
vn -0.419000 0.892900 -0.164600
vn -0.094300 -0.706700 0.701200
vn 0.114000 -0.825600 0.552600
vn 0.686700 -0.588100 -0.427200
vn -0.049200 0.886100 -0.460900
vn -0.454000 0.890800 0.018800
vn 0.241800 -0.970300 -0.012900
vn -0.570900 -0.273700 0.774100
vn -0.394500 -0.620900 0.677400
vn 0.029300 -0.970300 0.240300
vn 0.290400 -0.941800 -0.169600
vn 0.499600 -0.735200 -0.458200
vn 0.631200 -0.224700 -0.742400
vn 0.610300 0.265400 -0.746400
vn 0.368600 0.743300 -0.558300
vn 0.091600 0.979400 -0.180100
vn -0.636300 0.353300 0.685800
vn -0.345900 -0.785900 0.512600
vn -0.200300 -0.913100 0.355300
s off
f 1//1 2//1 3//1
f 3//2 2//2 4//2
f 5//3 6//3 7//3
f 6//4 8//4 9//4
f 1//5 10//5 2//5
f 11//6 12//6 13//6
f 10//7 1//7 14//7
f 8//8 15//8 11//8
f 11//9 15//9 12//9
f 10//10 16//10 2//10
f 2//11 16//11 17//11
f 18//12 19//12 20//12
f 20//13 19//13 21//13
f 17//14 22//14 23//14
f 23//15 22//15 18//15
f 24//16 25//16 26//16
f 26//17 25//17 27//17
f 27//18 28//18 16//18
f 28//19 29//19 17//19
f 6//20 30//20 31//20
f 8//21 31//21 15//21
f 22//22 32//22 18//22
f 18//23 32//23 19//23
f 25//24 33//24 27//24
f 27//25 34//25 28//25
f 35//26 36//26 21//26
f 21//27 36//27 30//27
f 37//28 38//28 24//28
f 33//29 34//29 27//29
f 29//30 39//30 22//30
f 34//31 40//31 41//31
f 32//32 42//32 35//32
f 36//33 43//33 30//33
f 38//34 44//34 33//34
f 44//35 40//35 34//35
f 29//36 45//36 39//36
f 43//37 46//37 31//37
f 46//38 47//38 37//38
f 47//39 48//39 38//39
f 35//40 49//40 50//40
f 48//41 51//41 44//41
f 40//42 52//42 53//42
f 51//43 52//43 40//43
f 45//44 54//44 55//44
f 39//45 55//45 42//45
f 49//46 56//46 50//46
f 50//47 56//47 57//47
f 57//48 58//48 46//48
f 52//49 59//49 53//49
f 55//50 60//50 42//50
f 47//51 61//51 48//51
f 48//52 61//52 62//52
f 51//53 62//53 52//53
f 58//54 63//54 47//54
f 61//55 64//55 62//55
f 62//56 64//56 65//56
f 66//57 67//57 59//57
f 67//58 68//58 54//58
f 55//59 69//59 60//59
f 70//60 71//60 57//60
f 57//61 71//61 58//61
f 55//62 72//62 69//62
f 73//63 74//63 70//63
f 71//64 75//64 58//64
f 63//65 76//65 61//65
f 76//66 77//66 64//66
f 64//67 77//67 66//67
f 78//68 79//68 67//68
f 67//69 79//69 68//69
f 79//70 80//70 68//70
f 71//71 81//71 75//71
f 63//72 82//72 76//72
f 78//73 83//73 79//73
f 69//74 84//74 74//74
f 76//75 85//75 77//75
f 85//76 83//76 78//76
f 74//77 86//77 87//77
f 87//78 86//78 81//78
f 82//79 88//79 76//79
f 76//80 88//80 85//80
f 89//81 90//81 79//81
f 84//82 91//82 74//82
f 81//83 92//83 93//83
f 75//84 93//84 82//84
f 94//85 89//85 83//85
f 72//86 95//86 96//86
f 84//87 96//87 91//87
f 93//88 97//88 82//88
f 89//89 98//89 90//89
f 96//90 99//90 91//90
f 91//91 99//91 100//91
f 97//92 101//92 88//92
f 94//93 98//93 89//93
f 98//94 102//94 103//94
f 100//95 104//95 92//95
f 104//96 105//96 93//96
f 106//97 102//97 98//97
f 103//98 107//98 108//98
f 108//99 107//99 109//99
f 96//100 110//100 99//100
f 110//101 111//101 100//101
f 100//102 111//102 104//102
f 97//103 112//103 101//103
f 101//104 112//104 106//104
f 102//105 113//105 114//105
f 109//106 115//106 96//106
f 116//107 113//107 102//107
f 110//108 117//108 111//108
f 111//109 117//109 118//109
f 118//110 119//110 105//110
f 113//111 120//111 114//111
f 121//112 122//112 112//112
f 112//113 122//113 116//113
f 116//114 120//114 113//114
f 109//115 123//115 115//115
f 123//116 124//116 110//116
f 110//117 124//117 117//117
f 117//118 125//118 118//118
f 118//119 125//119 119//119
f 126//120 127//120 107//120
f 124//121 128//121 117//121
f 117//122 128//122 125//122
f 127//123 129//123 109//123
f 130//124 131//124 126//124
f 126//125 131//125 127//125
f 124//126 132//126 128//126
f 125//127 133//127 119//127
f 122//128 134//128 135//128
f 135//129 134//129 130//129
f 131//130 136//130 127//130
f 127//131 136//131 129//131
f 129//132 137//132 123//132
f 125//133 138//133 133//133
f 121//134 139//134 122//134
f 121//135 140//135 139//135
f 136//136 141//136 129//136
f 134//137 142//137 143//137
f 143//138 144//138 131//138
f 131//139 144//139 136//139
f 137//140 145//140 146//140
f 132//141 146//141 147//141
f 138//142 148//142 133//142
f 140//143 149//143 139//143
f 136//144 150//144 141//144
f 149//145 151//145 142//145
f 142//146 151//146 143//146
f 140//147 152//147 149//147
f 144//148 153//148 150//148
f 154//149 155//149 145//149
f 148//150 9//150 152//150
f 152//151 156//151 149//151
f 157//152 158//152 159//152
f 155//153 160//153 146//153
f 161//154 7//154 9//154
f 162//155 158//155 157//155
f 150//156 163//156 154//156
f 3//157 4//157 163//157
f 4//158 23//158 154//158
f 23//159 164//159 155//159
f 164//160 20//160 160//160
f 20//161 5//161 165//161
f 165//162 5//162 7//162
f 152//163 11//163 13//163
f 7//164 6//164 9//164
f 9//165 8//165 11//165
f 13//166 12//166 14//166
f 164//167 23//167 18//167
f 164//168 18//168 20//168
f 14//169 12//169 26//169
f 14//170 26//170 10//170
f 4//171 2//171 17//171
f 4//172 17//172 23//172
f 5//173 20//173 21//173
f 5//174 21//174 6//174
f 10//175 27//175 16//175
f 12//176 15//176 24//176
f 12//177 24//177 26//177
f 10//178 26//178 27//178
f 16//179 28//179 17//179
f 17//180 29//180 22//180
f 6//181 21//181 30//181
f 8//182 6//182 31//182
f 25//183 24//183 33//183
f 19//184 32//184 35//184
f 19//185 35//185 21//185
f 15//186 31//186 37//186
f 15//187 37//187 24//187
f 24//188 38//188 33//188
f 28//189 34//189 41//189
f 28//190 41//190 29//190
f 22//191 39//191 32//191
f 32//192 39//192 42//192
f 30//193 43//193 31//193
f 33//194 44//194 34//194
f 29//195 41//195 45//195
f 31//196 46//196 37//196
f 37//197 47//197 38//197
f 38//198 48//198 44//198
f 41//199 40//199 53//199
f 41//200 53//200 45//200
f 35//201 42//201 49//201
f 36//202 35//202 50//202
f 36//203 50//203 43//203
f 44//204 51//204 40//204
f 45//205 53//205 54//205
f 39//206 45//206 55//206
f 43//207 50//207 57//207
f 43//208 57//208 46//208
f 46//209 58//209 47//209
f 53//210 59//210 54//210
f 42//211 60//211 49//211
f 51//212 48//212 62//212
f 52//213 65//213 59//213
f 49//214 60//214 73//214
f 49//215 73//215 56//215
f 47//216 63//216 61//216
f 52//217 62//217 65//217
f 65//218 66//218 59//218
f 59//219 67//219 54//219
f 54//220 68//220 55//220
f 60//221 69//221 73//221
f 56//222 73//222 70//222
f 56//223 70//223 57//223
f 65//224 64//224 66//224
f 55//225 68//225 72//225
f 73//226 69//226 74//226
f 58//227 75//227 63//227
f 61//228 76//228 64//228
f 66//229 78//229 67//229
f 70//230 74//230 87//230
f 70//231 87//231 71//231
f 66//232 77//232 78//232
f 68//233 80//233 72//233
f 71//234 87//234 81//234
f 63//235 75//235 82//235
f 69//236 72//236 84//236
f 77//237 85//237 78//237
f 83//238 89//238 79//238
f 79//239 90//239 80//239
f 74//240 91//240 86//240
f 81//241 86//241 92//241
f 75//242 81//242 93//242
f 85//243 88//243 94//243
f 85//244 94//244 83//244
f 72//245 80//245 95//245
f 84//246 72//246 96//246
f 82//247 97//247 88//247
f 80//248 90//248 108//248
f 80//249 108//249 95//249
f 86//250 91//250 100//250
f 86//251 100//251 92//251
f 88//252 101//252 94//252
f 90//253 98//253 103//253
f 90//254 103//254 108//254
f 94//255 101//255 106//255
f 94//256 106//256 98//256
f 92//257 104//257 93//257
f 93//258 105//258 97//258
f 95//259 108//259 109//259
f 95//260 109//260 96//260
f 99//261 110//261 100//261
f 103//262 102//262 114//262
f 103//263 114//263 107//263
f 96//264 115//264 110//264
f 106//265 112//265 116//265
f 106//266 116//266 102//266
f 104//267 111//267 118//267
f 104//268 118//268 105//268
f 105//269 119//269 97//269
f 97//270 119//270 121//270
f 97//271 121//271 112//271
f 114//272 120//272 126//272
f 114//273 126//273 107//273
f 115//274 123//274 110//274
f 116//275 122//275 135//275
f 116//276 135//276 120//276
f 107//277 127//277 109//277
f 120//278 130//278 126//278
f 109//279 129//279 123//279
f 120//280 135//280 130//280
f 124//281 123//281 132//281
f 119//282 133//282 121//282
f 130//283 166//283 131//283
f 123//284 137//284 132//284
f 125//285 128//285 138//285
f 122//286 139//286 134//286
f 130//287 134//287 166//287
f 128//288 132//288 167//288
f 128//289 167//289 138//289
f 121//290 133//290 140//290
f 166//291 143//291 131//291
f 129//292 141//292 137//292
f 134//293 139//293 142//293
f 166//294 134//294 143//294
f 137//295 141//295 145//295
f 132//296 137//296 146//296
f 167//297 132//297 147//297
f 167//298 147//298 138//298
f 133//299 148//299 140//299
f 139//300 149//300 142//300
f 136//301 144//301 150//301
f 143//302 157//302 144//302
f 138//303 147//303 161//303
f 138//304 161//304 148//304
f 140//305 148//305 152//305
f 143//306 151//306 157//306
f 144//307 157//307 153//307
f 147//308 146//308 168//308
f 147//309 168//309 161//309
f 141//310 150//310 154//310
f 141//311 154//311 145//311
f 145//312 155//312 146//312
f 148//313 161//313 9//313
f 149//314 156//314 151//314
f 153//315 157//315 159//315
f 153//316 159//316 150//316
f 146//317 160//317 168//317
f 161//318 168//318 7//318
f 151//319 156//319 162//319
f 151//320 162//320 157//320
f 150//321 159//321 163//321
f 168//322 160//322 165//322
f 168//323 165//323 7//323
f 158//324 1//324 159//324
f 156//325 152//325 13//325
f 156//326 13//326 162//326
f 162//327 1//327 158//327
f 159//328 1//328 3//328
f 159//329 3//329 163//329
f 163//330 4//330 154//330
f 154//331 23//331 155//331
f 155//332 164//332 160//332
f 160//333 20//333 165//333
f 152//334 9//334 11//334
f 162//335 13//335 14//335
f 14//336 1//336 162//336
